<svg width="24" height="24" xmlns="http://www.w3.org/2000/svg">

 <g>
  <title>background</title>
  <rect fill="none" id="canvas_background" height="402" width="582" y="-1" x="-1"/>
 </g>
 <g>
  <title>Layer 1</title>
  <path id="svg_1" fill="none" d="m0,0l24,0l0,24l-24,0l0,-24z"/>
  <path fill="#ffffff" id="svg_2" d="m19,3l-4.18,0c-0.42,-1.16 -1.52,-2 -2.82,-2c-1.3,0 -2.4,0.84 -2.82,2l-4.18,0c-1.1,0 -2,0.9 -2,2l0,14c0,1.1 0.9,2 2,2l14,0c1.1,0 2,-0.9 2,-2l0,-14c0,-1.1 -0.9,-2 -2,-2zm-7,0c0.55,0 1,0.45 1,1s-0.45,1 -1,1s-1,-0.45 -1,-1s0.45,-1 1,-1zm-2,14l-4,-4l1.41,-1.41l2.59,2.58l6.59,-6.59l1.41,1.42l-8,8z"/>
 </g>
</svg>